# Blender v2.79 (sub 0) OBJ File: 'MapaSimple.blend'
# www.blender.org
mtllib MapaSimple.mtl
o Cube
v 16.017244 -0.027206 -2.181060
v 1.972728 0.069578 -2.181059
v 16.017244 -0.027201 -12.852728
v 16.017244 0.069578 -2.181059
v 1.972728 -0.027206 -2.181060
v 1.972728 -0.027201 -12.852728
v 1.972728 0.069584 -12.852727
v 16.017244 0.069584 -12.852727
v 1.972728 1.122013 -2.181059
v 16.017244 1.122013 -2.181059
v 1.972728 1.122019 -12.852727
v 16.017244 1.122019 -12.852727
v 16.017244 0.069581 -7.516893
v 16.017244 1.122018 -11.785560
v 16.017244 1.122018 -10.718392
v 16.017244 1.122017 -9.651225
v 16.017244 1.122017 -8.584059
v 19.513559 0.069581 -7.516893
v 16.017244 1.122016 -6.449726
v 16.017244 1.122015 -5.382559
v 16.017244 1.122015 -4.315392
v 16.017244 1.122014 -3.248225
v 7.733548 -0.027206 -2.181060
v 7.733548 -0.027201 -12.852728
v 16.017244 -0.027203 -8.581956
v 16.017244 0.069581 -8.582130
v 16.017244 0.069580 -6.469496
v 19.513559 1.122017 -8.584059
v 19.513559 1.122016 -6.449726
v 19.513559 0.069581 -8.582130
v 19.513559 0.069580 -6.469496
v 22.803564 1.122017 -9.731684
v 22.803564 0.069581 -9.729755
v 26.113731 1.122016 -8.523777
v 26.113731 0.069580 -8.543548
v 26.113731 1.122016 -24.321367
v 26.113731 0.069580 -24.341139
v 22.803564 1.122017 -9.731684
v 22.803564 0.069581 -9.729755
v 16.759178 1.122017 -9.731684
v 16.759178 0.069581 -9.729755
v 16.759178 1.122017 -24.014225
v 16.759178 0.069581 -24.012295
v -16.017244 -0.027206 -2.181060
v -1.972728 0.069578 -2.181059
v -16.017244 -0.027201 -12.852728
v -16.017244 0.069578 -2.181059
v -1.972728 -0.027206 -2.181060
v 0.000000 -0.027206 -2.181060
v -1.972728 -0.027201 -12.852728
v 0.000000 0.069578 -2.181059
v -1.972728 0.069584 -12.852727
v -16.017244 0.069584 -12.852727
v -1.972728 1.122013 -2.181059
v -16.017244 1.122013 -2.181059
v 0.000000 1.122013 -2.181059
v -1.972728 1.122019 -12.852727
v -16.017244 1.122019 -12.852727
v -16.017244 0.069581 -7.516893
v -16.017244 1.122018 -11.785560
v -16.017244 1.122018 -10.718392
v -16.017244 1.122017 -9.651225
v -16.017244 1.122017 -8.584059
v -19.513559 0.069581 -7.516893
v -16.017244 1.122016 -6.449726
v -16.017244 1.122015 -5.382559
v -16.017244 1.122015 -4.315392
v -16.017244 1.122014 -3.248225
v -7.733548 -0.027206 -2.181060
v -7.733548 -0.027201 -12.852728
v -16.017244 -0.027203 -8.581956
v -16.017244 0.069581 -8.582130
v -16.017244 0.069580 -6.469496
v -19.513559 1.122017 -8.584059
v -19.513559 1.122016 -6.449726
v -19.513559 0.069581 -8.582130
v -19.513559 0.069580 -6.469496
v -22.803564 1.122017 -9.731684
v -22.803564 0.069581 -9.729755
v -26.113731 1.122016 -8.523777
v -26.113731 0.069580 -8.543548
v -26.113731 1.122016 -24.321367
v -26.113731 0.069580 -24.341139
v -22.803564 1.122017 -9.731684
v -22.803564 0.069581 -9.729755
v -16.759178 1.122017 -9.731684
v -16.759178 0.069581 -9.729755
v -16.759178 1.122017 -24.014225
v -16.759178 0.069581 -24.012295
v 16.017244 -0.027206 2.181060
v 1.972728 0.069578 2.181059
v 16.017244 -0.027201 12.852728
v 16.017244 0.069578 2.181059
v 1.972728 -0.027206 2.181060
v 1.972727 0.069578 0.000000
v 1.972728 -0.027201 12.852728
v 1.972728 0.069584 12.852727
v 16.017244 -0.027206 0.000000
v 1.972728 -0.027206 0.000000
v 16.017244 0.069578 0.000000
v 16.017244 0.069584 12.852727
v 1.972728 1.122013 2.181059
v 16.017244 1.122013 2.181059
v 1.972728 1.122019 12.852727
v 16.017244 1.122013 0.000000
v 16.017244 1.122019 12.852727
v 16.017244 0.069581 7.516893
v 16.017244 1.122018 11.785560
v 16.017244 1.122018 10.718392
v 16.017244 1.122017 9.651225
v 16.017244 1.122017 8.584059
v 19.513559 0.069581 7.516893
v 16.017244 1.122016 6.449726
v 16.017244 1.122015 5.382559
v 16.017244 1.122015 4.315392
v 16.017244 1.122014 3.248225
v 7.733547 -0.027206 0.000000
v 7.733548 -0.027206 2.181060
v 7.733548 -0.027201 12.852728
v 16.017244 -0.027203 8.581956
v 16.017244 0.069581 8.582130
v 16.017244 0.069580 6.469496
v 19.513559 1.122017 8.584059
v 19.513559 1.122016 6.449726
v 19.513559 0.069581 8.582130
v 19.513559 0.069580 6.469496
v 22.803564 1.122017 9.731684
v 22.803564 0.069581 9.729755
v 26.113731 1.122016 8.523777
v 26.113731 0.069580 8.543548
v 26.113731 1.122016 24.321367
v 26.113731 0.069580 24.341139
v 22.803564 1.122017 9.731684
v 22.803564 0.069581 9.729755
v 16.759178 1.122017 9.731684
v 16.759178 0.069581 9.729755
v 16.759178 1.122017 24.014225
v 16.759178 0.069581 24.012295
v -16.017244 -0.027206 2.181060
v -1.972728 0.069578 2.181059
v -16.017244 -0.027201 12.852728
v -16.017244 0.069578 2.181059
v -1.972728 -0.027206 2.181060
v -1.972727 0.069578 0.000000
v 0.000000 -0.027206 2.181060
v -1.972728 -0.027201 12.852728
v 0.000000 0.069578 2.181059
v -1.972728 0.069584 12.852727
v -16.017244 -0.027206 0.000000
v -1.972728 -0.027206 0.000000
v -16.017244 0.069578 0.000000
v -16.017244 0.069584 12.852727
v 0.000000 0.069578 0.000000
v 0.000000 -0.027206 0.000000
v -1.972728 1.122013 2.181059
v -16.017244 1.122013 2.181059
v 0.000000 1.122013 2.181059
v -1.972728 1.122019 12.852727
v -16.017244 1.122013 0.000000
v -16.017244 1.122019 12.852727
v -16.017244 0.069581 7.516893
v -16.017244 1.122018 11.785560
v -16.017244 1.122018 10.718392
v -16.017244 1.122017 9.651225
v -16.017244 1.122017 8.584059
v -19.513559 0.069581 7.516893
v -16.017244 1.122016 6.449726
v -16.017244 1.122015 5.382559
v -16.017244 1.122015 4.315392
v -16.017244 1.122014 3.248225
v -7.733547 -0.027206 0.000000
v -7.733548 -0.027206 2.181060
v -7.733548 -0.027201 12.852728
v -16.017244 -0.027203 8.581956
v -16.017244 0.069581 8.582130
v -16.017244 0.069580 6.469496
v -19.513559 1.122017 8.584059
v -19.513559 1.122016 6.449726
v -19.513559 0.069581 8.582130
v -19.513559 0.069580 6.469496
v -22.803564 1.122017 9.731684
v -22.803564 0.069581 9.729755
v -26.113731 1.122016 8.523777
v -26.113731 0.069580 8.543548
v -26.113731 1.122016 24.321367
v -26.113731 0.069580 24.341139
v -22.803564 1.122017 9.731684
v -22.803564 0.069581 9.729755
v -16.759178 1.122017 9.731684
v -16.759178 0.069581 9.729755
v -16.759178 1.122017 24.014225
v -16.759178 0.069581 24.012295
vt 0.593189 0.455356
vt 0.593189 0.068030
vt 0.650231 0.068030
vt 0.650231 0.455356
vt 0.816867 0.728419
vt 0.812054 0.728419
vt 0.812054 0.564635
vt 0.816867 0.564631
vt 0.816867 0.591888
vt 0.816867 0.618688
vt 0.275313 0.733802
vt 0.280126 0.733803
vt 0.280126 0.788122
vt 0.275313 0.788121
vt 0.481031 0.455356
vt 0.453638 0.455356
vt 0.425778 0.455356
vt 0.314087 0.455356
vt 0.314087 0.068030
vt 0.929333 0.242077
vt 0.929333 0.400951
vt 0.650231 0.400951
vt 0.650231 0.242077
vt 0.986375 0.400951
vt 0.986375 0.455356
vt 0.929333 0.455356
vt 0.593189 0.013625
vt 0.650231 0.013625
vt 0.869203 0.455356
vt 0.874016 0.455356
vt 0.874016 0.728419
vt 0.869203 0.728419
vt 0.816867 0.784228
vt 0.812054 0.784228
vt 0.702567 0.455368
vt 0.707380 0.455369
vt 0.707380 0.683458
vt 0.707380 0.842080
vt 0.702567 0.842079
vt 0.986375 0.242077
vt 0.650231 0.842068
vt 0.650231 0.455356
vt 0.222976 0.788081
vt 0.222976 0.733803
vt 0.275313 0.733802
vt 0.275313 0.788080
vt 0.869203 0.728419
vt 0.869203 0.784228
vt 0.926353 0.455356
vt 0.926353 0.728419
vt 0.170640 0.843077
vt 0.170640 0.733802
vt 0.222976 0.733852
vt 0.222976 0.761158
vt 0.222976 0.788464
vt 0.222976 0.815771
vt 0.222976 0.843077
vt 0.929333 0.013625
vt 0.986375 0.013625
vt 0.650231 0.013625
vt 0.761927 0.013625
vt 0.978764 0.736350
vt 0.926426 0.736405
vt 0.926353 0.640135
vt 0.978691 0.640080
vt 0.812054 0.455356
vt 0.816867 0.455356
vt 0.453638 0.551779
vt 0.425778 0.551779
vt 0.118303 0.734308
vt 0.170640 0.733802
vt 0.170640 0.843533
vt 0.118303 0.843533
vt 0.118303 0.816227
vt 0.118303 0.788921
vt 0.118303 0.761614
vt 0.013630 0.733804
vt 0.065966 0.733802
vt 0.065961 0.830000
vt 0.013625 0.830001
vt 0.481031 0.551779
vt 0.065966 0.922529
vt 0.013630 0.922531
vt 0.926425 0.455411
vt 0.978764 0.455356
vt 0.707380 0.455862
vt 0.759717 0.455356
vt 0.759717 0.859580
vt 0.707380 0.860086
vt 0.118303 0.900107
vt 0.065966 0.900111
vt 0.065966 0.733807
vt 0.118303 0.733802
vt 0.812054 0.820862
vt 0.759717 0.820813
vt 0.759717 0.455356
vt 0.812054 0.455406
vt 0.921540 0.986375
vt 0.869203 0.986341
vt 0.869204 0.728423
vt 0.921540 0.728419
vt 0.426787 0.733802
vt 0.013625 0.733802
vt 0.022225 0.475818
vt 0.395764 0.475818
vt 0.395764 0.642513
vt 0.395764 0.642513
vt 0.593189 0.455356
vt 0.650231 0.455356
vt 0.650231 0.068030
vt 0.593189 0.068030
vt 0.816867 0.728419
vt 0.816867 0.618688
vt 0.816867 0.591888
vt 0.816867 0.564631
vt 0.812054 0.564635
vt 0.812054 0.728419
vt 0.275313 0.733802
vt 0.280126 0.733803
vt 0.314087 0.068030
vt 0.314087 0.455356
vt 0.425778 0.455356
vt 0.453638 0.455356
vt 0.481031 0.455356
vt 0.929333 0.242077
vt 0.650231 0.242077
vt 0.650231 0.400951
vt 0.929333 0.400951
vt 0.986375 0.400951
vt 0.869203 0.455356
vt 0.869203 0.728419
vt 0.874016 0.728419
vt 0.874016 0.455356
vt 0.812054 0.784228
vt 0.816867 0.784228
vt 0.702567 0.455368
vt 0.702567 0.842079
vt 0.707380 0.842080
vt 0.707380 0.683458
vt 0.707380 0.455369
vt 0.986375 0.242077
vt 0.650231 0.455356
vt 0.650231 0.842068
vt 0.275313 0.733802
vt 0.222976 0.733803
vt 0.869203 0.784228
vt 0.869203 0.728419
vt 0.926353 0.728419
vt 0.926353 0.455356
vt 0.170640 0.843077
vt 0.222976 0.843077
vt 0.222976 0.815771
vt 0.222976 0.788464
vt 0.222976 0.761158
vt 0.222976 0.733852
vt 0.170640 0.733802
vt 0.929333 0.013625
vt 0.986375 0.013625
vt 0.761927 0.013625
vt 0.650231 0.013625
vt 0.978764 0.736350
vt 0.978691 0.640080
vt 0.926353 0.640135
vt 0.926426 0.736405
vt 0.816867 0.455356
vt 0.812054 0.455356
vt 0.425778 0.551779
vt 0.453638 0.551779
vt 0.118303 0.734308
vt 0.118303 0.761614
vt 0.118303 0.788921
vt 0.118303 0.816227
vt 0.118303 0.843533
vt 0.170640 0.843533
vt 0.170640 0.733802
vt 0.013630 0.733804
vt 0.013625 0.830001
vt 0.065961 0.830000
vt 0.065966 0.733802
vt 0.481031 0.551779
vt 0.013630 0.922531
vt 0.065966 0.922529
vt 0.978764 0.455356
vt 0.926425 0.455411
vt 0.707380 0.455862
vt 0.707380 0.860086
vt 0.759717 0.859580
vt 0.759717 0.455356
vt 0.118303 0.900107
vt 0.118303 0.733802
vt 0.065966 0.733807
vt 0.065966 0.900111
vt 0.812054 0.820862
vt 0.812054 0.455406
vt 0.759717 0.455356
vt 0.759717 0.820813
vt 0.921540 0.986375
vt 0.921540 0.728419
vt 0.869204 0.728423
vt 0.869203 0.986341
vt 0.395764 0.642513
vt 0.395764 0.642513
vt 0.395764 0.475818
vt 0.022225 0.475818
vt 0.013625 0.733802
vt 0.426787 0.733802
vt 0.593189 0.455356
vt 0.593189 0.068030
vt 0.816867 0.728419
vt 0.816867 0.618688
vt 0.816867 0.591888
vt 0.816867 0.564631
vt 0.812054 0.564635
vt 0.812054 0.728419
vt 0.275313 0.733802
vt 0.275313 0.788121
vt 0.280126 0.788122
vt 0.280126 0.733803
vt 0.314087 0.068030
vt 0.314087 0.455356
vt 0.425778 0.455356
vt 0.453638 0.455356
vt 0.481031 0.455356
vt 0.929333 0.242077
vt 0.650231 0.242077
vt 0.650231 0.400951
vt 0.929333 0.400951
vt 0.929333 0.455356
vt 0.593189 0.013625
vt 0.869203 0.455356
vt 0.869203 0.728419
vt 0.874016 0.728419
vt 0.874016 0.455356
vt 0.702567 0.455368
vt 0.702567 0.842079
vt 0.707380 0.842080
vt 0.707380 0.683458
vt 0.707380 0.455369
vt 0.650231 0.455356
vt 0.650231 0.842068
vt 0.222976 0.788081
vt 0.275313 0.788080
vt 0.275313 0.733802
vt 0.222976 0.733803
vt 0.869203 0.728419
vt 0.926353 0.728419
vt 0.926353 0.455356
vt 0.170640 0.843077
vt 0.222976 0.843077
vt 0.222976 0.815771
vt 0.222976 0.788464
vt 0.222976 0.761158
vt 0.222976 0.733852
vt 0.170640 0.733802
vt 0.929333 0.013625
vt 0.761927 0.013625
vt 0.650231 0.013625
vt 0.978764 0.736350
vt 0.978691 0.640080
vt 0.926353 0.640135
vt 0.926426 0.736405
vt 0.816867 0.455356
vt 0.812054 0.455356
vt 0.425778 0.551779
vt 0.453638 0.551779
vt 0.118303 0.734308
vt 0.118303 0.761614
vt 0.118303 0.788921
vt 0.118303 0.816227
vt 0.118303 0.843533
vt 0.170640 0.843533
vt 0.170640 0.733802
vt 0.013630 0.733804
vt 0.013625 0.830001
vt 0.065961 0.830000
vt 0.065966 0.733802
vt 0.481031 0.551779
vt 0.013630 0.922531
vt 0.065966 0.922529
vt 0.978764 0.455356
vt 0.926425 0.455411
vt 0.707380 0.455862
vt 0.707380 0.860086
vt 0.759717 0.859580
vt 0.759717 0.455356
vt 0.118303 0.900107
vt 0.118303 0.733802
vt 0.065966 0.733807
vt 0.065966 0.900111
vt 0.812054 0.820862
vt 0.812054 0.455406
vt 0.759717 0.455356
vt 0.759717 0.820813
vt 0.921540 0.986375
vt 0.921540 0.728419
vt 0.869204 0.728423
vt 0.869203 0.986341
vt 0.395764 0.642513
vt 0.395764 0.642513
vt 0.395764 0.475818
vt 0.022225 0.475818
vt 0.013625 0.733802
vt 0.426787 0.733802
vt 0.593189 0.455356
vt 0.593189 0.068030
vt 0.816867 0.728419
vt 0.812054 0.728419
vt 0.812054 0.564635
vt 0.816867 0.564631
vt 0.816867 0.591888
vt 0.816867 0.618688
vt 0.275313 0.733802
vt 0.280126 0.733803
vt 0.481031 0.455356
vt 0.453638 0.455356
vt 0.425778 0.455356
vt 0.314087 0.455356
vt 0.314087 0.068030
vt 0.929333 0.242077
vt 0.929333 0.400951
vt 0.650231 0.400951
vt 0.650231 0.242077
vt 0.869203 0.455356
vt 0.874016 0.455356
vt 0.874016 0.728419
vt 0.869203 0.728419
vt 0.702567 0.455368
vt 0.707380 0.455369
vt 0.707380 0.683458
vt 0.707380 0.842080
vt 0.702567 0.842079
vt 0.650231 0.842068
vt 0.650231 0.455356
vt 0.222976 0.733803
vt 0.275313 0.733802
vt 0.869203 0.728419
vt 0.926353 0.455356
vt 0.926353 0.728419
vt 0.170640 0.843077
vt 0.170640 0.733802
vt 0.222976 0.733852
vt 0.222976 0.761158
vt 0.222976 0.788464
vt 0.222976 0.815771
vt 0.222976 0.843077
vt 0.929333 0.013625
vt 0.650231 0.013625
vt 0.761927 0.013625
vt 0.978764 0.736350
vt 0.926426 0.736405
vt 0.926353 0.640135
vt 0.978691 0.640080
vt 0.812054 0.455356
vt 0.816867 0.455356
vt 0.453638 0.551779
vt 0.425778 0.551779
vt 0.118303 0.734308
vt 0.170640 0.733802
vt 0.170640 0.843533
vt 0.118303 0.843533
vt 0.118303 0.816227
vt 0.118303 0.788921
vt 0.118303 0.761614
vt 0.013630 0.733804
vt 0.065966 0.733802
vt 0.065961 0.830000
vt 0.013625 0.830001
vt 0.481031 0.551779
vt 0.065966 0.922529
vt 0.013630 0.922531
vt 0.926425 0.455411
vt 0.978764 0.455356
vt 0.707380 0.455862
vt 0.759717 0.455356
vt 0.759717 0.859580
vt 0.707380 0.860086
vt 0.118303 0.900107
vt 0.065966 0.900111
vt 0.065966 0.733807
vt 0.118303 0.733802
vt 0.812054 0.820862
vt 0.759717 0.820813
vt 0.759717 0.455356
vt 0.812054 0.455406
vt 0.921540 0.986375
vt 0.869203 0.986341
vt 0.869204 0.728423
vt 0.921540 0.728419
vt 0.426787 0.733802
vt 0.013625 0.733802
vt 0.022225 0.475818
vt 0.395764 0.475818
vt 0.395764 0.642513
vt 0.395764 0.642513
vn 0.0000 1.0000 0.0000
vn 1.0000 0.0000 0.0000
vn 0.0000 0.0000 -1.0000
vn 0.0000 -1.0000 -0.0000
vn -1.0000 -0.0000 -0.0000
vn 0.0000 0.0000 1.0000
vn 0.0000 0.0188 -0.9998
vn 0.0000 0.0018 1.0000
vn 0.3294 0.0017 0.9442
vn -0.2997 0.0179 -0.9539
vn 0.0340 -0.0085 0.9994
vn -0.3294 0.0017 0.9442
vn 0.2997 0.0179 -0.9539
vn -0.0340 -0.0085 0.9994
vn 0.0000 0.0188 0.9998
vn 0.0000 0.0018 -1.0000
vn 0.3294 0.0017 -0.9442
vn -0.2997 0.0179 0.9539
vn 0.0340 -0.0085 -0.9994
vn -0.3294 0.0017 -0.9442
vn 0.2997 0.0179 0.9539
vn -0.0340 -0.0085 -0.9994
usemtl Material
s off
f 4/1/1 2/2/1 95/3/1 100/4/1
f 4/5/2 1/6/2 25/7/2 26/8/2 13/9/2 27/10/2
f 2/11/3 5/12/3 49/13/3 51/14/3
f 2/2/1 4/1/1 27/15/1 13/16/1 26/17/1 8/18/1 7/19/1
f 23/20/4 5/21/4 6/22/4 24/23/4
f 5/21/4 99/24/4 154/25/4 49/26/4
f 2/2/1 51/27/1 153/28/1 95/3/1
f 5/29/5 2/30/5 7/31/5 6/32/5
f 1/6/2 4/5/2 100/33/2 98/34/2
f 8/35/3 3/36/3 24/37/3 6/38/3 7/39/3
f 23/20/4 117/40/4 99/24/4 5/21/4
f 8/35/3 7/39/3 11/41/3 12/42/3
f 51/43/6 2/44/6 9/45/6 56/46/6
f 100/33/2 4/5/2 10/47/2 105/48/2
f 7/31/5 2/30/5 9/49/5 11/50/5
f 8/51/5 26/52/5 17/53/5 16/54/5 15/55/5 14/56/5 12/57/5
f 1/58/4 98/59/4 117/40/4 23/20/4
f 1/58/4 23/20/4 24/23/4 3/60/4 25/61/4
f 27/62/7 19/63/7 29/64/7 31/65/7
f 26/8/2 25/7/2 3/66/2 8/67/2
f 26/17/1 13/16/1 18/68/1 30/69/1
f 19/70/5 27/71/5 4/72/5 10/73/5 22/74/5 21/75/5 20/76/5
f 17/77/8 26/78/8 30/79/8 28/80/8
f 13/16/1 27/15/1 31/81/1 18/68/1
f 28/80/9 30/79/9 33/82/9 32/83/9
f 31/65/10 29/64/10 34/84/10 35/85/10
f 35/86/5 34/87/5 36/88/5 37/89/5
f 39/90/8 38/91/8 40/92/8 41/93/8
f 41/94/5 40/95/5 42/96/5 43/97/5
f 37/98/11 36/99/11 42/100/11 43/101/11
f 30/69/1 18/68/1 31/81/1 35/102/1 37/103/1 43/104/1 41/105/1 39/106/1 33/107/1
f 47/108/1 151/109/1 144/110/1 45/111/1
f 47/112/5 73/113/5 59/114/5 72/115/5 71/116/5 44/117/5
f 45/118/3 51/14/3 49/13/3 48/119/3
f 45/111/1 52/120/1 53/121/1 72/122/1 59/123/1 73/124/1 47/108/1
f 69/125/4 70/126/4 50/127/4 48/128/4
f 48/128/4 49/26/4 154/25/4 150/129/4
f 45/111/1 144/110/1 153/28/1 51/27/1
f 48/130/2 50/131/2 52/132/2 45/133/2
f 44/117/5 149/134/5 151/135/5 47/112/5
f 53/136/3 52/137/3 50/138/3 70/139/3 46/140/3
f 69/125/4 48/128/4 150/129/4 171/141/4
f 53/136/3 58/142/3 57/143/3 52/137/3
f 51/43/6 56/46/6 54/144/6 45/145/6
f 151/135/5 159/146/5 55/147/5 47/112/5
f 52/132/2 57/148/2 54/149/2 45/133/2
f 53/150/2 58/151/2 60/152/2 61/153/2 62/154/2 63/155/2 72/156/2
f 44/157/4 69/125/4 171/141/4 149/158/4
f 44/157/4 71/159/4 46/160/4 70/126/4 69/125/4
f 73/161/7 77/162/7 75/163/7 65/164/7
f 72/115/5 53/165/5 46/166/5 71/116/5
f 72/122/1 76/167/1 64/168/1 59/123/1
f 65/169/2 66/170/2 67/171/2 68/172/2 55/173/2 47/174/2 73/175/2
f 63/176/8 74/177/8 76/178/8 72/179/8
f 59/123/1 64/168/1 77/180/1 73/124/1
f 74/177/12 78/181/12 79/182/12 76/178/12
f 77/162/13 81/183/13 80/184/13 75/163/13
f 81/185/2 83/186/2 82/187/2 80/188/2
f 85/189/8 87/190/8 86/191/8 84/192/8
f 87/193/2 89/194/2 88/195/2 86/196/2
f 83/197/14 89/198/14 88/199/14 82/200/14
f 76/167/1 79/201/1 85/202/1 87/203/1 89/204/1 83/205/1 81/206/1 77/180/1 64/168/1
f 93/207/1 100/4/1 95/3/1 91/208/1
f 93/209/2 122/210/2 107/211/2 121/212/2 120/213/2 90/214/2
f 91/215/6 147/216/6 145/217/6 94/218/6
f 91/208/1 97/219/1 101/220/1 121/221/1 107/222/1 122/223/1 93/207/1
f 118/224/4 119/225/4 96/226/4 94/227/4
f 94/227/4 145/228/4 154/25/4 99/24/4
f 91/208/1 95/3/1 153/28/1 147/229/1
f 94/230/5 96/231/5 97/232/5 91/233/5
f 90/214/2 98/34/2 100/33/2 93/209/2
f 101/234/6 97/235/6 96/236/6 119/237/6 92/238/6
f 118/224/4 94/227/4 99/24/4 117/40/4
f 101/234/6 106/239/6 104/240/6 97/235/6
f 147/241/3 157/242/3 102/243/3 91/244/3
f 100/33/2 105/48/2 103/245/2 93/209/2
f 97/232/5 104/246/5 102/247/5 91/233/5
f 101/248/5 106/249/5 108/250/5 109/251/5 110/252/5 111/253/5 121/254/5
f 90/255/4 118/224/4 117/40/4 98/59/4
f 90/255/4 120/256/4 92/257/4 119/225/4 118/224/4
f 122/258/15 126/259/15 124/260/15 113/261/15
f 121/212/2 101/262/2 92/263/2 120/213/2
f 121/221/1 125/264/1 112/265/1 107/222/1
f 113/266/5 114/267/5 115/268/5 116/269/5 103/270/5 93/271/5 122/272/5
f 111/273/16 123/274/16 125/275/16 121/276/16
f 107/222/1 112/265/1 126/277/1 122/223/1
f 123/274/17 127/278/17 128/279/17 125/275/17
f 126/259/18 130/280/18 129/281/18 124/260/18
f 130/282/5 132/283/5 131/284/5 129/285/5
f 134/286/16 136/287/16 135/288/16 133/289/16
f 136/290/5 138/291/5 137/292/5 135/293/5
f 132/294/19 138/295/19 137/296/19 131/297/19
f 125/264/1 128/298/1 134/299/1 136/300/1 138/301/1 132/302/1 130/303/1 126/277/1 112/265/1
f 142/304/1 140/305/1 144/110/1 151/109/1
f 142/306/5 139/307/5 174/308/5 175/309/5 161/310/5 176/311/5
f 140/312/6 143/313/6 145/217/6 147/216/6
f 140/305/1 142/304/1 176/314/1 161/315/1 175/316/1 152/317/1 148/318/1
f 172/319/4 143/320/4 146/321/4 173/322/4
f 143/320/4 150/129/4 154/25/4 145/228/4
f 140/305/1 147/229/1 153/28/1 144/110/1
f 143/323/2 140/324/2 148/325/2 146/326/2
f 139/307/5 142/306/5 151/135/5 149/134/5
f 152/327/6 141/328/6 173/329/6 146/330/6 148/331/6
f 172/319/4 171/141/4 150/129/4 143/320/4
f 152/327/6 148/331/6 158/332/6 160/333/6
f 147/241/3 140/334/3 155/335/3 157/242/3
f 151/135/5 142/306/5 156/336/5 159/146/5
f 148/325/2 140/324/2 155/337/2 158/338/2
f 152/339/2 175/340/2 165/341/2 164/342/2 163/343/2 162/344/2 160/345/2
f 139/346/4 149/158/4 171/141/4 172/319/4
f 139/346/4 172/319/4 173/322/4 141/347/4 174/348/4
f 176/349/15 167/350/15 178/351/15 180/352/15
f 175/309/5 174/308/5 141/353/5 152/354/5
f 175/316/1 161/315/1 166/355/1 179/356/1
f 167/357/2 176/358/2 142/359/2 156/360/2 170/361/2 169/362/2 168/363/2
f 165/364/16 175/365/16 179/366/16 177/367/16
f 161/315/1 176/314/1 180/368/1 166/355/1
f 177/367/20 179/366/20 182/369/20 181/370/20
f 180/352/21 178/351/21 183/371/21 184/372/21
f 184/373/2 183/374/2 185/375/2 186/376/2
f 188/377/16 187/378/16 189/379/16 190/380/16
f 190/381/2 189/382/2 191/383/2 192/384/2
f 186/385/22 185/386/22 191/387/22 192/388/22
f 179/356/1 166/355/1 180/368/1 184/389/1 186/390/1 192/391/1 190/392/1 188/393/1 182/394/1
