# Blender v2.79 (sub 0) OBJ File: ''
# www.blender.org
mtllib MapaSimple.mtl
o Cube.002
v 1.972728 0.069578 -2.181059
v 16.017244 0.069578 0.000000
v 16.017244 0.069578 -2.181059
v 16.017244 0.069582 -6.469496
v 16.017244 -0.027201 -8.581956
v 16.017244 0.069583 -7.516893
v 1.972728 -0.027206 -2.181060
v 0.000000 0.069578 -2.181059
v 16.017244 0.069583 -8.582130
v 1.972728 0.069588 -12.852727
v 7.733548 -0.027197 -12.852728
v 7.733548 -0.027206 -2.181060
v 1.972728 -0.027206 -0.000000
v 0.000000 -0.027206 -2.181060
v 1.972727 0.069578 0.000000
v 1.972728 -0.027197 -12.852728
v 16.017244 -0.027206 -0.000000
v 16.017244 -0.027206 -2.181060
v 7.733547 -0.027206 -0.000000
v 16.017244 1.122023 -12.852727
v 16.017244 0.069588 -12.852727
v 0.000000 1.122013 -2.181059
v 16.017244 1.122013 0.000000
v 1.972728 1.122023 -12.852727
v 16.017244 1.122021 -9.651225
v 16.017244 1.122022 -10.718392
v 16.017244 -0.027197 -12.852728
v 16.017244 1.122018 -6.449726
v 19.513559 0.069582 -6.469496
v 19.513559 0.069583 -8.582130
v 16.017244 1.122017 -4.315392
v 16.017244 1.122017 -5.382559
v 19.513559 1.122019 -8.584059
v 16.017244 1.122019 -8.584059
v 19.513559 0.069583 -7.516893
v 22.803564 0.069585 -9.729755
v 22.803564 1.122021 -9.731684
v 26.113731 1.122018 -8.523777
v 26.113731 0.069582 -8.543548
v 26.113731 1.122024 -24.321367
v 26.113731 0.069588 -24.341139
v 22.803564 1.122021 -9.731684
v 16.759178 0.069585 -9.729755
v 22.803564 0.069585 -9.729755
v 16.759178 1.122021 -9.731684
v 16.759178 0.069589 -24.012295
v -16.017244 0.069578 0.000000
v -1.972728 0.069578 -2.181059
v -16.017244 0.069578 -2.181059
v -16.017244 -0.027201 -8.581956
v -16.017244 -0.027206 -2.181060
v -16.017244 0.069582 -6.469496
v -1.972728 -0.027206 -2.181060
v -1.972728 0.069588 -12.852727
v -16.017244 0.069583 -8.582130
v -16.017244 0.069583 -7.516893
v -7.733548 -0.027197 -12.852728
v -7.733548 -0.027206 -2.181060
v -1.972728 -0.027206 -0.000000
v -1.972727 0.069578 0.000000
v -16.017244 -0.027206 -0.000000
v -1.972728 -0.027197 -12.852728
v -7.733547 -0.027206 -0.000000
v -16.017244 1.122023 -12.852727
v -16.017244 0.069588 -12.852727
v -16.017244 1.122013 0.000000
v -1.972728 1.122023 -12.852727
v -16.017244 1.122021 -9.651225
v -16.017244 1.122019 -8.584059
v -19.513559 0.069582 -6.469496
v -16.017244 1.122018 -6.449726
v -16.017244 -0.027197 -12.852728
v -19.513559 0.069583 -8.582130
v -16.017244 1.122017 -4.315392
v -19.513559 1.122019 -8.584059
v -19.513559 0.069583 -7.516893
v -22.803564 0.069585 -9.729755
v -26.113731 1.122018 -8.523777
v -19.513559 1.122018 -6.449726
v -26.113731 0.069582 -8.543548
v -26.113731 1.122024 -24.321367
v -16.759178 0.069585 -9.729755
v -22.803564 1.122021 -9.731684
v -22.803564 0.069585 -9.729755
v -16.759178 0.069589 -24.012295
v -16.759178 1.122021 -9.731684
v -26.113731 0.069588 -24.341139
v 1.972728 0.069578 2.181059
v 16.017244 0.069578 2.181059
v 16.017244 -0.027205 8.581956
v 16.017244 -0.027206 2.181060
v 16.017244 0.069578 6.469496
v 0.000000 0.069578 2.181059
v 1.972728 -0.027206 2.181060
v 1.972728 0.069580 12.852727
v 16.017244 0.069579 8.582130
v 16.017244 0.069579 7.516893
v 7.733548 -0.027205 12.852728
v 7.733548 -0.027206 2.181060
v 0.000000 -0.027206 2.181060
v 1.972728 -0.027205 12.852728
v 16.017244 1.122015 12.852727
v 16.017244 0.069580 12.852727
v 0.000000 1.122013 2.181059
v 1.972728 1.122015 12.852727
v 16.017244 1.122013 9.651225
v 16.017244 1.122015 8.584059
v 19.513559 0.069578 6.469496
v 16.017244 1.122014 6.449726
v 16.017244 -0.027205 12.852728
v 19.513559 0.069579 8.582130
v 16.017244 1.122013 4.315392
v 19.513559 1.122015 8.584059
v 19.513559 0.069579 7.516893
v 22.803564 0.069577 9.729755
v 26.113731 1.122014 8.523777
v 19.513559 1.122014 6.449726
v 26.113731 0.069578 8.543548
v 26.113731 1.122008 24.321367
v 16.759178 0.069577 9.729755
v 22.803564 1.122013 9.731684
v 22.803564 0.069577 9.729755
v 16.759178 0.069573 24.012295
v 16.759178 1.122013 9.731684
v 26.113731 0.069572 24.341139
v -1.972728 0.069578 2.181059
v -16.017244 0.069578 2.181059
v -16.017244 0.069578 6.469496
v -16.017244 -0.027205 8.581956
v -16.017244 0.069579 7.516893
v -1.972728 -0.027206 2.181060
v -16.017244 0.069579 8.582130
v -1.972728 0.069580 12.852727
v -7.733548 -0.027205 12.852728
v -7.733548 -0.027206 2.181060
v -1.972728 -0.027205 12.852728
v -16.017244 -0.027206 2.181060
v -16.017244 1.122015 12.852727
v -16.017244 0.069580 12.852727
v -1.972728 1.122015 12.852727
v -16.017244 1.122013 9.651225
v -16.017244 1.122014 10.718392
v -16.017244 -0.027205 12.852728
v -16.017244 1.122014 6.449726
v -19.513559 0.069578 6.469496
v -19.513559 0.069579 8.582130
v -16.017244 1.122013 4.315392
v -16.017244 1.122013 5.382559
v -19.513559 1.122015 8.584059
v -16.017244 1.122015 8.584059
v -19.513559 0.069579 7.516893
v -22.803564 0.069577 9.729755
v -22.803564 1.122013 9.731684
v -26.113731 1.122014 8.523777
v -26.113731 0.069578 8.543548
v -26.113731 1.122008 24.321367
v -26.113731 0.069572 24.341139
v -22.803564 1.122013 9.731684
v -16.759178 0.069577 9.729755
v -22.803564 0.069577 9.729755
v -16.759178 1.122013 9.731684
v -16.759178 0.069573 24.012295
v 0.000000 -0.027206 -0.000000
v 0.000000 0.069578 0.000000
v 1.972728 1.122013 -2.181059
v 16.017244 1.122013 -2.181059
v 16.017244 1.122022 -11.785560
v 19.513559 1.122018 -6.449726
v 16.017244 1.122015 -3.248225
v 16.759178 1.122025 -24.014225
v -1.972728 1.122013 -2.181059
v -16.017244 1.122013 -2.181059
v -16.017244 1.122022 -10.718392
v -16.017244 1.122022 -11.785560
v -16.017244 1.122017 -5.382559
v -16.017244 1.122015 -3.248225
v -22.803564 1.122021 -9.731684
v -16.759178 1.122025 -24.014225
v 1.972728 1.122013 2.181059
v 16.017244 1.122013 2.181059
v 16.017244 1.122014 10.718392
v 16.017244 1.122014 11.785560
v 16.017244 1.122013 5.382559
v 16.017244 1.122014 3.248225
v 22.803564 1.122013 9.731684
v 16.759178 1.122009 24.014225
v -1.972728 1.122013 2.181059
v -16.017244 1.122013 2.181059
v -16.017244 1.122014 11.785560
v -19.513559 1.122014 6.449726
v -16.017244 1.122014 3.248225
v -16.759178 1.122009 24.014225
vt 0.593189 0.068030
vt 0.650231 0.455356
vt 0.593189 0.455356
vt 0.816867 0.618688
vt 0.812054 0.564635
vt 0.816867 0.591888
vt 0.280126 0.733803
vt 0.275313 0.788121
vt 0.275313 0.733802
vt 0.453638 0.455356
vt 0.425778 0.455356
vt 0.314087 0.068030
vt 0.929333 0.400951
vt 0.650231 0.242077
vt 0.929333 0.242077
vt 0.986375 0.400951
vt 0.929333 0.455356
vt 0.593189 0.013625
vt 0.650231 0.068030
vt 0.874016 0.455356
vt 0.869203 0.728419
vt 0.869203 0.455356
vt 0.816867 0.728419
vt 0.812054 0.784228
vt 0.812054 0.728419
vt 0.707380 0.683458
vt 0.707380 0.842080
vt 0.702567 0.842079
vt 0.986375 0.242077
vt 0.650231 0.455356
vt 0.702567 0.455368
vt 0.222976 0.733803
vt 0.275313 0.788080
vt 0.222976 0.788081
vt 0.869203 0.784228
vt 0.816867 0.784228
vt 0.926353 0.728419
vt 0.874016 0.728419
vt 0.222976 0.761158
vt 0.222976 0.788464
vt 0.170640 0.733802
vt 0.986375 0.013625
vt 0.929333 0.013625
vt 0.650231 0.013625
vt 0.761927 0.013625
vt 0.926426 0.736405
vt 0.978691 0.640080
vt 0.978764 0.736350
vt 0.816867 0.564631
vt 0.812054 0.455356
vt 0.816867 0.455356
vt 0.425778 0.551779
vt 0.118303 0.788921
vt 0.118303 0.761614
vt 0.170640 0.733802
vt 0.065966 0.733802
vt 0.013625 0.830001
vt 0.013630 0.733804
vt 0.481031 0.455356
vt 0.453638 0.551779
vt 0.065966 0.922529
vt 0.013630 0.922531
vt 0.926425 0.455411
vt 0.978764 0.455356
vt 0.707380 0.455862
vt 0.759717 0.859580
vt 0.707380 0.860086
vt 0.065966 0.900111
vt 0.118303 0.733802
vt 0.118303 0.900107
vt 0.759717 0.820813
vt 0.812054 0.455406
vt 0.812054 0.820862
vt 0.869203 0.986341
vt 0.921540 0.728419
vt 0.921540 0.986375
vt 0.022225 0.475818
vt 0.395764 0.475818
vt 0.395764 0.642513
vt 0.650231 0.455356
vt 0.593189 0.068030
vt 0.593189 0.455356
vt 0.812054 0.564635
vt 0.812054 0.728419
vt 0.816867 0.618688
vt 0.280126 0.733803
vt 0.275313 0.733802
vt 0.314087 0.068030
vt 0.425778 0.455356
vt 0.453638 0.455356
vt 0.650231 0.242077
vt 0.929333 0.400951
vt 0.929333 0.242077
vt 0.986375 0.400951
vt 0.650231 0.068030
vt 0.869203 0.455356
vt 0.874016 0.728419
vt 0.874016 0.455356
vt 0.812054 0.784228
vt 0.816867 0.728419
vt 0.702567 0.842079
vt 0.707380 0.842080
vt 0.707380 0.683458
vt 0.986375 0.242077
vt 0.650231 0.455356
vt 0.702567 0.455368
vt 0.222976 0.733803
vt 0.869203 0.784228
vt 0.816867 0.784228
vt 0.926353 0.728419
vt 0.222976 0.761158
vt 0.222976 0.733852
vt 0.170640 0.733802
vt 0.986375 0.013625
vt 0.929333 0.013625
vt 0.761927 0.013625
vt 0.978691 0.640080
vt 0.926426 0.736405
vt 0.978764 0.736350
vt 0.816867 0.564631
vt 0.812054 0.455356
vt 0.425778 0.551779
vt 0.170640 0.843533
vt 0.170640 0.733802
vt 0.118303 0.788921
vt 0.013625 0.830001
vt 0.065966 0.733802
vt 0.013630 0.733804
vt 0.453638 0.551779
vt 0.481031 0.455356
vt 0.065966 0.922529
vt 0.065961 0.830000
vt 0.926425 0.455411
vt 0.926353 0.640135
vt 0.707380 0.455862
vt 0.759717 0.859580
vt 0.759717 0.455356
vt 0.118303 0.733802
vt 0.065966 0.900111
vt 0.118303 0.900107
vt 0.812054 0.455406
vt 0.759717 0.820813
vt 0.812054 0.820862
vt 0.921540 0.728419
vt 0.869203 0.986341
vt 0.921540 0.986375
vt 0.426787 0.733802
vt 0.481031 0.551779
vt 0.395764 0.642513
vt 0.593189 0.068030
vt 0.593189 0.455356
vt 0.812054 0.564635
vt 0.812054 0.728419
vt 0.816867 0.618688
vt 0.275313 0.788121
vt 0.280126 0.733803
vt 0.275313 0.733802
vt 0.314087 0.068030
vt 0.425778 0.455356
vt 0.453638 0.455356
vt 0.650231 0.242077
vt 0.929333 0.400951
vt 0.929333 0.242077
vt 0.929333 0.455356
vt 0.593189 0.013625
vt 0.869203 0.455356
vt 0.874016 0.728419
vt 0.874016 0.455356
vt 0.816867 0.728419
vt 0.702567 0.842079
vt 0.707380 0.842080
vt 0.707380 0.683458
vt 0.650231 0.455356
vt 0.702567 0.455368
vt 0.275313 0.788080
vt 0.222976 0.733803
vt 0.222976 0.788081
vt 0.926353 0.728419
vt 0.222976 0.761158
vt 0.222976 0.733852
vt 0.170640 0.733802
vt 0.929333 0.013625
vt 0.761927 0.013625
vt 0.978691 0.640080
vt 0.926426 0.736405
vt 0.978764 0.736350
vt 0.816867 0.564631
vt 0.812054 0.455356
vt 0.425778 0.551779
vt 0.170640 0.843533
vt 0.170640 0.733802
vt 0.118303 0.788921
vt 0.013625 0.830001
vt 0.065966 0.733802
vt 0.013630 0.733804
vt 0.453638 0.551779
vt 0.481031 0.455356
vt 0.065966 0.922529
vt 0.065961 0.830000
vt 0.926425 0.455411
vt 0.926353 0.640135
vt 0.707380 0.455862
vt 0.759717 0.859580
vt 0.759717 0.455356
vt 0.118303 0.733802
vt 0.065966 0.900111
vt 0.118303 0.900107
vt 0.812054 0.455406
vt 0.759717 0.820813
vt 0.812054 0.820862
vt 0.921540 0.728419
vt 0.869203 0.986341
vt 0.921540 0.986375
vt 0.426787 0.733802
vt 0.481031 0.551779
vt 0.395764 0.642513
vt 0.593189 0.068030
vt 0.593189 0.455356
vt 0.816867 0.618688
vt 0.812054 0.564635
vt 0.816867 0.591888
vt 0.280126 0.733803
vt 0.275313 0.733802
vt 0.453638 0.455356
vt 0.425778 0.455356
vt 0.314087 0.068030
vt 0.929333 0.400951
vt 0.650231 0.242077
vt 0.929333 0.242077
vt 0.874016 0.455356
vt 0.869203 0.728419
vt 0.869203 0.455356
vt 0.816867 0.728419
vt 0.812054 0.728419
vt 0.707380 0.683458
vt 0.707380 0.842080
vt 0.702567 0.842079
vt 0.650231 0.455356
vt 0.702567 0.455368
vt 0.222976 0.733803
vt 0.926353 0.728419
vt 0.874016 0.728419
vt 0.222976 0.761158
vt 0.222976 0.788464
vt 0.170640 0.733802
vt 0.929333 0.013625
vt 0.650231 0.013625
vt 0.761927 0.013625
vt 0.926426 0.736405
vt 0.978691 0.640080
vt 0.978764 0.736350
vt 0.816867 0.564631
vt 0.812054 0.455356
vt 0.816867 0.455356
vt 0.425778 0.551779
vt 0.118303 0.788921
vt 0.118303 0.761614
vt 0.170640 0.733802
vt 0.065966 0.733802
vt 0.013625 0.830001
vt 0.013630 0.733804
vt 0.481031 0.455356
vt 0.453638 0.551779
vt 0.065966 0.922529
vt 0.013630 0.922531
vt 0.926425 0.455411
vt 0.978764 0.455356
vt 0.707380 0.455862
vt 0.759717 0.859580
vt 0.707380 0.860086
vt 0.065966 0.900111
vt 0.118303 0.733802
vt 0.118303 0.900107
vt 0.759717 0.820813
vt 0.812054 0.455406
vt 0.812054 0.820862
vt 0.869203 0.986341
vt 0.921540 0.728419
vt 0.921540 0.986375
vt 0.022225 0.475818
vt 0.395764 0.475818
vt 0.395764 0.642513
vt 0.280126 0.788122
vt 0.314087 0.455356
vt 0.650231 0.400951
vt 0.986375 0.455356
vt 0.650231 0.013625
vt 0.707380 0.455369
vt 0.650231 0.842068
vt 0.275313 0.733802
vt 0.869203 0.728419
vt 0.926353 0.455356
vt 0.222976 0.843077
vt 0.170640 0.843077
vt 0.222976 0.815771
vt 0.222976 0.733852
vt 0.926353 0.640135
vt 0.118303 0.734308
vt 0.170640 0.843533
vt 0.118303 0.843533
vt 0.118303 0.816227
vt 0.065961 0.830000
vt 0.481031 0.551779
vt 0.759717 0.455356
vt 0.065966 0.733807
vt 0.759717 0.455356
vt 0.869204 0.728423
vt 0.426787 0.733802
vt 0.013625 0.733802
vt 0.395764 0.642513
vt 0.816867 0.591888
vt 0.314087 0.455356
vt 0.650231 0.400951
vt 0.869203 0.728419
vt 0.707380 0.455369
vt 0.650231 0.842068
vt 0.275313 0.733802
vt 0.869203 0.728419
vt 0.926353 0.455356
vt 0.170640 0.843077
vt 0.222976 0.788464
vt 0.222976 0.843077
vt 0.222976 0.815771
vt 0.650231 0.013625
vt 0.816867 0.455356
vt 0.118303 0.734308
vt 0.118303 0.761614
vt 0.118303 0.816227
vt 0.118303 0.843533
vt 0.013630 0.922531
vt 0.978764 0.455356
vt 0.707380 0.860086
vt 0.065966 0.733807
vt 0.759717 0.455356
vt 0.869204 0.728423
vt 0.395764 0.642513
vt 0.395764 0.475818
vt 0.022225 0.475818
vt 0.013625 0.733802
vt 0.816867 0.591888
vt 0.280126 0.788122
vt 0.314087 0.455356
vt 0.650231 0.400951
vt 0.869203 0.728419
vt 0.707380 0.455369
vt 0.650231 0.842068
vt 0.275313 0.733802
vt 0.869203 0.728419
vt 0.926353 0.455356
vt 0.170640 0.843077
vt 0.222976 0.788464
vt 0.222976 0.843077
vt 0.222976 0.815771
vt 0.650231 0.013625
vt 0.816867 0.455356
vt 0.118303 0.734308
vt 0.118303 0.761614
vt 0.118303 0.816227
vt 0.118303 0.843533
vt 0.013630 0.922531
vt 0.978764 0.455356
vt 0.707380 0.860086
vt 0.065966 0.733807
vt 0.759717 0.455356
vt 0.869204 0.728423
vt 0.395764 0.642513
vt 0.395764 0.475818
vt 0.022225 0.475818
vt 0.013625 0.733802
vt 0.314087 0.455356
vt 0.650231 0.400951
vt 0.707380 0.455369
vt 0.650231 0.842068
vt 0.275313 0.733802
vt 0.869203 0.728419
vt 0.926353 0.455356
vt 0.222976 0.843077
vt 0.170640 0.843077
vt 0.222976 0.815771
vt 0.222976 0.733852
vt 0.926353 0.640135
vt 0.118303 0.734308
vt 0.170640 0.843533
vt 0.118303 0.843533
vt 0.118303 0.816227
vt 0.065961 0.830000
vt 0.481031 0.551779
vt 0.759717 0.455356
vt 0.065966 0.733807
vt 0.759717 0.455356
vt 0.869204 0.728423
vt 0.426787 0.733802
vt 0.013625 0.733802
vt 0.395764 0.642513
vn 0.0000 1.0000 0.0000
vn 1.0000 0.0000 0.0000
vn 0.0000 0.0000 -1.0000
vn 0.0000 -1.0000 -0.0000
vn -1.0000 -0.0000 0.0000
vn 0.0000 -0.0000 1.0000
vn 0.0000 0.0188 -0.9998
vn 0.0000 0.0018 1.0000
vn 0.3294 0.0017 0.9442
vn -0.2997 0.0179 -0.9539
vn 0.0350 -0.0173 0.9992
vn 0.0330 0.0004 0.9995
vn 0.0351 -0.0188 0.9992
vn 0.0000 0.9668 0.2554
vn -0.3294 0.0017 0.9442
vn 0.2997 0.0179 -0.9539
vn -0.0330 0.0004 0.9995
vn -0.0350 -0.0173 0.9992
vn -0.0351 -0.0188 0.9992
vn 0.0000 0.0188 0.9998
vn 0.0000 0.0018 -1.0000
vn 0.3294 0.0017 -0.9442
vn -0.2997 0.0179 0.9539
vn 0.0330 0.0004 -0.9995
vn 0.0350 -0.0173 -0.9992
vn 0.0351 -0.0188 -0.9992
vn -0.3294 0.0017 -0.9442
vn 0.2997 0.0179 0.9539
vn -0.0350 -0.0173 -0.9992
vn -0.0330 0.0004 -0.9995
vn -0.0351 -0.0188 -0.9992
vn 0.0328 0.0018 0.9995
vn -0.0328 0.0018 0.9995
vn 0.0000 0.4675 0.6274
vn 0.0328 0.0018 -0.9995
vn 0.0000 0.4675 0.6275
vn -0.0328 0.0018 -0.9995
usemtl Material.002
s 1
f 1/1/1 2/2/1 3/3/1
f 4/4/2 5/5/2 6/6/2
f 7/7/3 8/8/3 1/9/3
f 6/10/1 9/11/1 10/12/1
f 7/13/4 11/14/4 12/15/4
f 13/16/4 14/17/4 7/13/4
f 8/18/1 15/19/1 1/1/1
f 1/20/5 16/21/5 7/22/5
f 3/23/2 17/24/2 18/25/2
f 11/26/3 16/27/3 10/28/3
f 19/29/4 7/13/4 12/15/4
f 10/28/3 20/30/3 21/31/3
f 1/32/6 22/33/6 8/34/6
f 3/23/2 23/35/2 2/36/2
f 1/20/5 24/37/5 10/38/5
f 25/39/5 26/40/5 9/41/5
f 17/42/4 12/15/4 18/43/4
f 11/14/4 27/44/4 5/45/4
f 28/46/7 29/47/7 4/48/7
f 9/49/2 27/50/2 21/51/2
f 6/10/1 30/52/1 9/11/1
f 31/53/5 32/54/5 4/55/5
f 9/56/8 33/57/8 34/58/8
f 4/59/1 35/60/1 6/10/1
f 33/57/9 36/61/9 37/62/9
f 29/47/10 38/63/10 39/64/10
f 39/65/5 40/66/5 41/67/5
f 42/68/8 43/69/8 44/70/8
f 45/71/5 46/72/5 43/73/5
f 40/74/11 46/75/12 41/76/13
f 46/77/1 43/78/1 36/79/14
f 47/80/1 48/81/1 49/82/1
f 50/83/5 51/84/5 52/85/5
f 8/8/3 53/86/3 48/87/3
f 54/88/1 55/89/1 56/90/1
f 57/91/4 53/92/4 58/93/4
f 14/17/4 59/94/4 53/92/4
f 60/95/1 8/18/1 48/81/1
f 53/96/2 54/97/2 48/98/2
f 61/99/5 49/100/5 51/84/5
f 54/101/3 62/102/3 57/103/3
f 53/92/4 63/104/4 58/93/4
f 64/105/3 54/101/3 65/106/3
f 22/33/6 48/107/6 8/34/6
f 66/108/5 49/100/5 47/109/5
f 67/110/2 48/98/2 54/97/2
f 68/111/2 69/112/2 55/113/2
f 58/93/4 61/114/4 51/115/4
f 50/116/4 57/91/4 58/93/4
f 70/117/7 71/118/7 52/119/7
f 55/120/5 72/121/5 50/83/5
f 73/122/1 56/90/1 55/89/1
f 49/123/2 52/124/2 74/125/2
f 75/126/8 55/127/8 69/128/8
f 76/129/1 52/130/1 56/90/1
f 75/126/15 77/131/15 73/132/15
f 70/117/16 78/133/16 79/134/16
f 80/135/2 81/136/2 78/137/2
f 82/138/8 83/139/8 84/140/8
f 85/141/2 86/142/2 82/143/2
f 85/144/17 81/145/18 87/146/19
f 80/147/1 70/148/1 77/149/14
f 2/2/1 88/150/1 89/151/1
f 90/152/2 91/153/2 92/154/2
f 93/155/6 94/156/6 88/157/6
f 95/158/1 96/159/1 97/160/1
f 98/161/4 94/162/4 99/163/4
f 100/164/4 13/16/4 94/162/4
f 15/19/1 93/165/1 88/150/1
f 94/166/5 95/167/5 88/168/5
f 17/24/2 89/169/2 91/153/2
f 95/170/6 101/171/6 98/172/6
f 94/162/4 19/29/4 99/163/4
f 102/173/6 95/170/6 103/174/6
f 104/175/3 88/176/3 93/177/3
f 23/35/2 89/169/2 2/36/2
f 105/178/5 88/168/5 95/167/5
f 106/179/5 107/180/5 96/181/5
f 99/163/4 17/42/4 91/182/4
f 90/183/4 98/161/4 99/163/4
f 108/184/20 109/185/20 92/186/20
f 96/187/2 110/188/2 90/152/2
f 111/189/1 97/160/1 96/159/1
f 89/190/5 92/191/5 112/192/5
f 113/193/21 96/194/21 107/195/21
f 114/196/1 92/197/1 97/160/1
f 113/193/22 115/198/22 111/199/22
f 108/184/23 116/200/23 117/201/23
f 118/202/5 119/203/5 116/204/5
f 120/205/21 121/206/21 122/207/21
f 123/208/5 124/209/5 120/210/5
f 123/211/24 119/212/25 125/213/26
f 118/214/1 108/215/1 115/216/14
f 126/217/1 47/80/1 127/218/1
f 128/219/5 129/220/5 130/221/5
f 131/222/6 93/155/6 126/223/6
f 130/224/1 132/225/1 133/226/1
f 131/227/4 134/228/4 135/229/4
f 59/94/4 100/164/4 131/227/4
f 93/165/1 60/95/1 126/217/1
f 126/230/2 136/231/2 131/232/2
f 127/233/5 61/99/5 137/234/5
f 134/235/6 136/236/6 133/237/6
f 63/104/4 131/227/4 135/229/4
f 133/237/6 138/238/6 139/239/6
f 126/240/3 104/175/3 93/177/3
f 127/233/5 66/108/5 47/109/5
f 126/230/2 140/241/2 133/242/2
f 141/243/2 142/244/2 132/245/2
f 61/114/4 135/229/4 137/246/4
f 134/228/4 143/247/4 129/248/4
f 144/249/20 145/250/20 128/251/20
f 132/252/5 143/253/5 139/254/5
f 130/224/1 146/255/1 132/225/1
f 147/256/2 148/257/2 128/258/2
f 132/259/21 149/260/21 150/261/21
f 128/262/1 151/263/1 130/224/1
f 149/260/27 152/264/27 153/265/27
f 145/250/28 154/266/28 155/267/28
f 155/268/2 156/269/2 157/270/2
f 158/271/21 159/272/21 160/273/21
f 161/274/2 162/275/2 159/276/2
f 156/277/29 162/278/30 157/279/31
f 162/280/1 159/281/1 152/282/14
f 1/1/1 15/19/1 2/2/1
f 4/4/2 3/23/2 18/25/2
f 18/25/2 5/5/2 4/4/2
f 5/5/2 9/49/2 6/6/2
f 7/7/3 14/283/3 8/8/3
f 10/12/1 1/1/1 6/10/1
f 1/1/1 3/3/1 4/59/1
f 1/1/1 4/59/1 6/10/1
f 9/11/1 21/284/1 10/12/1
f 7/13/4 16/285/4 11/14/4
f 13/16/4 163/286/4 14/17/4
f 8/18/1 164/287/1 15/19/1
f 1/20/5 10/38/5 16/21/5
f 3/23/2 2/36/2 17/24/2
f 10/28/3 21/31/3 11/26/3
f 21/31/3 27/288/3 11/26/3
f 19/29/4 13/16/4 7/13/4
f 10/28/3 24/289/3 20/30/3
f 1/32/6 165/290/6 22/33/6
f 3/23/2 166/291/2 23/35/2
f 1/20/5 165/292/5 24/37/5
f 20/293/5 21/294/5 167/295/5
f 21/294/5 9/41/5 26/40/5
f 167/295/5 21/294/5 26/40/5
f 9/41/5 34/296/5 25/39/5
f 17/42/4 19/29/4 12/15/4
f 5/45/4 18/43/4 12/15/4
f 12/15/4 11/14/4 5/45/4
f 28/46/7 168/297/7 29/47/7
f 9/49/2 5/5/2 27/50/2
f 6/10/1 35/60/1 30/52/1
f 32/54/5 28/298/5 4/55/5
f 4/55/5 3/299/5 31/53/5
f 3/299/5 166/300/5 169/301/5
f 31/53/5 3/299/5 169/301/5
f 9/56/8 30/302/8 33/57/8
f 4/59/1 29/303/1 35/60/1
f 33/57/9 30/302/9 36/61/9
f 29/47/10 168/297/10 38/63/10
f 39/65/5 38/304/5 40/66/5
f 42/68/8 45/305/8 43/69/8
f 45/71/5 170/306/5 46/72/5
f 40/74/11 170/307/32 46/75/12
f 36/79/14 30/52/1 35/60/1
f 35/60/1 29/303/1 36/79/14
f 29/303/1 39/308/1 36/79/14
f 39/308/1 41/309/1 36/79/14
f 41/309/1 46/77/1 36/79/14
f 43/78/1 44/310/6 36/79/14
f 47/80/1 60/95/1 48/81/1
f 51/84/5 49/100/5 52/85/5
f 52/85/5 56/311/5 50/83/5
f 56/311/5 55/120/5 50/83/5
f 8/8/3 14/283/3 53/86/3
f 49/82/1 48/81/1 52/130/1
f 48/81/1 54/88/1 56/90/1
f 52/130/1 48/81/1 56/90/1
f 54/88/1 65/312/1 55/89/1
f 57/91/4 62/313/4 53/92/4
f 14/17/4 163/286/4 59/94/4
f 60/95/1 164/287/1 8/18/1
f 53/96/2 62/314/2 54/97/2
f 61/99/5 47/109/5 49/100/5
f 72/315/3 65/106/3 57/103/3
f 65/106/3 54/101/3 57/103/3
f 53/92/4 59/94/4 63/104/4
f 64/105/3 67/316/3 54/101/3
f 22/33/6 171/317/6 48/107/6
f 66/108/5 172/318/5 49/100/5
f 67/110/2 171/319/2 48/98/2
f 55/113/2 65/320/2 173/321/2
f 65/320/2 64/322/2 174/323/2
f 174/323/2 173/321/2 65/320/2
f 173/321/2 68/111/2 55/113/2
f 58/93/4 63/104/4 61/114/4
f 58/93/4 51/115/4 50/116/4
f 50/116/4 72/324/4 57/91/4
f 70/117/7 79/134/7 71/118/7
f 55/120/5 65/325/5 72/121/5
f 73/122/1 76/129/1 56/90/1
f 52/124/2 71/326/2 175/327/2
f 175/327/2 74/125/2 52/124/2
f 74/125/2 176/328/2 49/123/2
f 176/328/2 172/329/2 49/123/2
f 75/126/8 73/132/8 55/127/8
f 76/129/1 70/148/1 52/130/1
f 75/126/15 177/330/15 77/131/15
f 70/117/16 80/331/16 78/133/16
f 80/135/2 87/332/2 81/136/2
f 82/138/8 86/333/8 83/139/8
f 85/141/2 178/334/2 86/142/2
f 85/144/17 178/335/33 81/145/18
f 76/129/1 73/122/1 77/149/14
f 77/149/34 84/336/6 82/337/1
f 70/148/1 76/129/1 77/149/14
f 85/338/1 87/339/1 77/149/14
f 87/339/1 80/147/1 77/149/14
f 77/149/34 82/337/1 85/338/1
f 2/2/1 15/19/1 88/150/1
f 91/153/2 89/169/2 92/154/2
f 92/154/2 97/340/2 90/152/2
f 97/340/2 96/187/2 90/152/2
f 93/155/6 100/341/6 94/156/6
f 89/151/1 88/150/1 92/197/1
f 88/150/1 95/158/1 97/160/1
f 92/197/1 88/150/1 97/160/1
f 95/158/1 103/342/1 96/159/1
f 98/161/4 101/343/4 94/162/4
f 100/164/4 163/286/4 13/16/4
f 15/19/1 164/287/1 93/165/1
f 94/166/5 101/344/5 95/167/5
f 17/24/2 2/36/2 89/169/2
f 110/345/6 103/174/6 98/172/6
f 103/174/6 95/170/6 98/172/6
f 94/162/4 13/16/4 19/29/4
f 102/173/6 105/346/6 95/170/6
f 104/175/3 179/347/3 88/176/3
f 23/35/2 180/348/2 89/169/2
f 105/178/5 179/349/5 88/168/5
f 96/181/5 103/350/5 181/351/5
f 103/350/5 102/352/5 182/353/5
f 182/353/5 181/351/5 103/350/5
f 181/351/5 106/179/5 96/181/5
f 99/163/4 19/29/4 17/42/4
f 99/163/4 91/182/4 90/183/4
f 90/183/4 110/354/4 98/161/4
f 108/184/20 117/201/20 109/185/20
f 96/187/2 103/355/2 110/188/2
f 111/189/1 114/196/1 97/160/1
f 92/191/5 109/356/5 183/357/5
f 183/357/5 112/192/5 92/191/5
f 112/192/5 184/358/5 89/190/5
f 184/358/5 180/359/5 89/190/5
f 113/193/21 111/199/21 96/194/21
f 114/196/1 108/215/1 92/197/1
f 113/193/22 185/360/22 115/198/22
f 108/184/23 118/361/23 116/200/23
f 118/202/5 125/362/5 119/203/5
f 120/205/21 124/363/21 121/206/21
f 123/208/5 186/364/5 124/209/5
f 123/211/24 186/365/35 119/212/25
f 114/196/1 111/189/1 115/216/14
f 115/216/36 122/366/6 120/367/1
f 108/215/1 114/196/1 115/216/14
f 123/368/1 125/369/1 115/216/14
f 125/369/1 118/214/1 115/216/14
f 115/216/36 120/367/1 123/368/1
f 126/217/1 60/95/1 47/80/1
f 128/219/5 127/233/5 137/234/5
f 137/234/5 129/220/5 128/219/5
f 129/220/5 132/252/5 130/221/5
f 131/222/6 100/341/6 93/155/6
f 133/226/1 126/217/1 130/224/1
f 126/217/1 127/218/1 128/262/1
f 126/217/1 128/262/1 130/224/1
f 132/225/1 139/370/1 133/226/1
f 131/227/4 136/371/4 134/228/4
f 59/94/4 163/286/4 100/164/4
f 93/165/1 164/287/1 60/95/1
f 126/230/2 133/242/2 136/231/2
f 127/233/5 47/109/5 61/99/5
f 133/237/6 139/239/6 134/235/6
f 139/239/6 143/372/6 134/235/6
f 63/104/4 59/94/4 131/227/4
f 133/237/6 140/373/6 138/238/6
f 126/240/3 187/374/3 104/175/3
f 127/233/5 188/375/5 66/108/5
f 126/230/2 187/376/2 140/241/2
f 138/377/2 139/378/2 189/379/2
f 139/378/2 132/245/2 142/244/2
f 189/379/2 139/378/2 142/244/2
f 132/245/2 150/380/2 141/243/2
f 61/114/4 63/104/4 135/229/4
f 129/248/4 137/246/4 135/229/4
f 135/229/4 134/228/4 129/248/4
f 144/249/20 190/381/20 145/250/20
f 132/252/5 129/220/5 143/253/5
f 130/224/1 151/263/1 146/255/1
f 148/257/2 144/382/2 128/258/2
f 128/258/2 127/383/2 147/256/2
f 127/383/2 188/384/2 191/385/2
f 147/256/2 127/383/2 191/385/2
f 132/259/21 146/386/21 149/260/21
f 128/262/1 145/387/1 151/263/1
f 149/260/27 146/386/27 152/264/27
f 145/250/28 190/381/28 154/266/28
f 155/268/2 154/388/2 156/269/2
f 158/271/21 161/389/21 159/272/21
f 161/274/2 192/390/2 162/275/2
f 156/277/29 192/391/37 162/278/30
f 152/282/14 146/255/1 151/263/1
f 151/263/1 145/387/1 152/282/14
f 145/387/1 155/392/1 152/282/14
f 155/392/1 157/393/1 152/282/14
f 157/393/1 162/280/1 152/282/14
f 159/281/1 160/394/6 152/282/14
